/* XPM */
static char *result[] = {
/* columns rows colors chars-per-pixel */
"32 32 53 1 ",
"  c gray11",
". c #1D1D1D",
"X c #1F1E1E",
"o c #232323",
"O c #252221",
"+ c gray14",
"@ c #282828",
"# c #2A2A2A",
"$ c #302A28",
"% c #362E2C",
"& c #3A302F",
"* c gray19",
"= c #313030",
"- c #333131",
"; c #413635",
": c #443736",
"> c #463837",
", c #473A36",
"< c #403A38",
"1 c #294428",
"2 c #2C4C2A",
"3 c #325E2F",
"4 c #346732",
"5 c #377034",
"6 c #475E27",
"7 c #56762B",
"8 c #4B4540",
"9 c #584641",
"0 c #564A43",
"q c #5F5149",
"w c #644E48",
"e c #6F564F",
"r c #6A5C53",
"t c #785C54",
"y c #7D6158",
"u c #80645A",
"i c #83675D",
"p c #836E60",
"a c #8D7064",
"s c #937769",
"d c #987F6F",
"f c #5E812E",
"g c #4AA945",
"h c #65BA42",
"j c #6ABD42",
"k c #73C441",
"l c #98DB3D",
"z c #9D8070",
"x c #9E8372",
"c c #A38675",
"v c #A98C7A",
"b c #AB8E7B",
"n c None",
/* pixels */
"nnnnnnnnnnnnnnnnnnnnnnnnnnnnnnnn",
"nnnnnnnnnnnnnnnnnnnnnnnnnnnnnnnn",
"nnnnnnnnnnnnnnnnnnnnnnnnnnnnnnnn",
"nnnnnnnnnnnnnnnnnnnnnnnnnnnnnnnn",
"nnnnnnnnnnnnnnnnnnnnnnnnnnnnnnnn",
"nnnnnnnnnnnnnnnnnnnnnnnnnnnnnnnn",
"nnnnnnnnnnnnnnnnnnnnnnnnnnnnnnnn",
"nnnnnnnnnnnn37 33nnnnnnnnnnnnnnn",
"nnnnnnnnnn fk7fkk4 nnnnnnnnnnnnn",
"nnnnnnnnnn ll5ljjg nnnnnnnnnnnnn",
"nnnnnnnnnnn6hghgg2nnnnnnnnnnnnnn",
"nnnnnnnnnnnn11111nnnnnnnnnnnnnnn",
"nnnnnnnnnnnnnnnnnnnnnnnnnnnnnnnn",
"nnnnnnnn            nnnnnnnnnnnn",
"nnnnnnnn eeeeeeeexe nnnnnnnnnnnn",
"nnnnnnnn XXvvXXXvbt  nnnnnnnnnnn",
"nnnnnnn XXXbbXXXbbt tXnnnnnnnnnn",
"nnnnnnn yyybbyyybbt ytOnnnnnnnnn",
"nnnnnnn dbdbdbdbdct but nnnnnnnn",
"nnnnnnn 8b8b8b8b<tw bbi$nnnnnnnn",
"nnnnnnn pzzzzzzztt %bbzt nnnnnnn",
"nnnnnnnn 999999999 tbbtt nnnnnnn",
"nnnnnnn 00000+00000abbat nnnnnnn",
"nnnnnnn bbbbbrbbbbbbbsst nnnnnnn",
"nnnnnnn qqqqqqqqqqqqq,,, nnnnnnn",
"nnnnnnn @@@@@@@@@@@@@@@@ nnnnnnn",
"nnnnnnn oooooooooooooooo nnnnnnn",
"nnnnnnn &&&&&&&&&&&#&### nnnnnnn",
"nnnnnnn >>>>>>>>>>>;>;** nnnnnnn",
"nnnnnnn >>>>>>>>>>->--** nnnnnnn",
"nnnnnnn >>>>>>>>>>:>:*** nnnnnnn",
"nnnnnnn .===........=**. nnnnnnn"
};
