/* XPM */
static char *b5ac9576a6664366f375c402318a1473sKfket33o0UE2Fj0[] = {
/* columns rows colors chars-per-pixel */
"32 32 47 1 ",
"  c None",
". c gray13",
"X c #222222",
"o c #232323",
"O c #252424",
"+ c #282828",
"@ c #2F2B2A",
"# c #2C2C2C",
"$ c gray18",
"% c gray20",
"& c #343333",
"* c #363434",
"= c #3A3230",
"- c #3D3433",
"; c #393736",
": c #3E3B3A",
"> c #433938",
", c #463A39",
"< c #483B3A",
"1 c #4A3D3A",
"2 c #2E472C",
"3 c #3D793A",
"4 c #43562A",
"5 c #48403B",
"6 c #644F4A",
"7 c #62544B",
"8 c #6F5750",
"9 c #6B5D54",
"0 c #745A53",
"q c #775C55",
"w c #795E56",
"e c #7C6158",
"r c #7F645B",
"t c #7A685D",
"y c #82675D",
"u c #896D62",
"i c #8C7667",
"p c #927669",
"a c #95796B",
"s c #957C6C",
"d c #9C7F70",
"f c #6F9B35",
"g c #9F8272",
"h c #A28574",
"j c #A68A78",
"k c #A88B79",
"l c #AA8D7A",
/* pixels */
"                                ",
"                                ",
"                                ",
"                                ",
"                                ",
"                                ",
"                                ",
"                                ",
"                                ",
"           .......              ",
"          .33f.333.             ",
"        ...224.222..            ",
"        .66666666i6.            ",
"        .@@hh@@@hlq.            ",
"       ....ll...llq..           ",
"       .000ll000llq.0.          ",
"       .jljljljljkq.wqO         ",
"       .:l:l:l:l;q8.leq.        ",
"       .shhhhhhhqq.@llr@        ",
"        .666666666.yllgq.       ",
"        ===555555==dllqq.       ",
"       .uuulllllluuulluq.       ",
"       .llllltllllllllaq.       ",
"       .lllll9lllllllpqq.       ",
"       .7777777777777111.       ",
"       .################.       ",
"       .++++++++++++++++.       ",
"       .-----------#-###.       ",
"       .<<<<<<<<<<<><>%%.       ",
"       .<<<<<<<<<<*<**%%.       ",
"       .<<<<<<<<<<,<,%%%.       ",
"       ..&&&........&%%..       "
};
