/* XPM */
static char *result[] = {
/* columns rows colors chars-per-pixel */
"32 32 54 1 ",
"  c #1B1B1B",
". c gray11",
"X c #1D1D1D",
"o c #1E1E1E",
"O c #201F1F",
"+ c #252221",
"@ c gray14",
"# c #272727",
"$ c gray16",
"% c #302A28",
"& c #382E2E",
"* c gray19",
"= c #323131",
"- c #353232",
"; c #343332",
": c #3B3531",
"> c #403635",
", c #433736",
"< c #463837",
"1 c #4D3E3A",
"2 c #2C4C2A",
"3 c #2F552D",
"4 c #325E2F",
"5 c #346732",
"6 c #377034",
"7 c #475E27",
"8 c #4E6A29",
"9 c #56762B",
"0 c #5E4A44",
"q c #62564E",
"w c #6A524B",
"e c #6F564F",
"r c #68594E",
"t c #755A52",
"y c #785C54",
"u c #7A5E55",
"i c #7D6158",
"p c #80645A",
"a c #866A5F",
"s c #816E61",
"d c #836E60",
"f c #967A6B",
"g c #997D6E",
"h c #5E812E",
"j c #6ABD42",
"k c #73C441",
"l c #98DB3D",
"z c #9E8372",
"x c #A08372",
"c c #A38675",
"v c #A68977",
"b c #A98C7A",
"n c #AB8E7B",
"m c None",
/* pixels */
"mmmmmmmmmmmmmmmmmmmmmmmmmmmmmmmm",
"mmmmmmmmmmmmmmmmmmmmmmmmmmmmmmmm",
"mmmmmmmmmmmmmmmmmmmmmmmmmmmmmmmm",
"mmmmmmmmmmmmmmmmmmmmmmmmmmmmmmmm",
"mmmmmmmmmmmmmmmmmmmmmmmmmmmmmmmm",
"mmmmmmmmmmmmmmmmmmmmmmmmmmmmmmmm",
"mmmmmmmmmmmmmmmmmmmmmmmmmmmmmmmm",
"mmmmmmmmmmm449.444mmmmmmmmmmmmmm",
"mmmmmmmmm.hkk9hkkk5.mmmmmmmmmmmm",
"mmmmmmmmmm8ll6ljjj3mmmmmmmmmmmmm",
"mmmmmmmm  .7727222. mmmmmmmmmmmm",
"mmmmmmmm.00000000d0.mmmmmmmmmmmm",
"mmmmmmmm.%%xx%%%xny.mmmmmmmmmmmm",
"mmmmmmm....nn...nny..mmmmmmmmmmm",
"mmmmmmm.eeenneeenny.e.mmmmmmmmmm",
"mmmmmmm.bbbnnbbbnny.yt.mmmmmmmmm",
"mmmmmmm.;n;n;n;n=yt.nuy.mmmmmmmm",
"mmmmmmm.zvvvvvvvyy.+nni+mmmmmmmm",
"mmmmmmmm.wwwwwwwww.pnncy.mmmmmmm",
"mmmmmmmm%%%::::::%%xnnyy.mmmmmmm",
"mmmmmmm.aaannnnnnaaannay.mmmmmmm",
"mmmmmmm.nnnnnsnnnnnnnngy.mmmmmmm",
"mmmmmmm.nnnnnqnnnnnnnfyy.mmmmmmm",
"mmmmmmm.rrrrrrrrrrrrr111.mmmmmmm",
"mmmmmmm.################.mmmmmmm",
"mmmmmmm.@@@@@@@@@@@@@@@@.mmmmmmm",
"mmmmmmm.&&&&&&&&&&&$&$$$.mmmmmmm",
"mmmmmmm.<<<<<<<<<<<><>**.mmmmmmm",
"mmmmmmm.<<<<<<<<<<-<--**.mmmmmmm",
"mmmmmmm.<<<<<<<<<<,<,***.mmmmmmm",
"mmmmmmm.O===OOOOOOOO=**o.mmmmmmm",
"mmmmmmmm.XXX.mmmmmm.XXX.mmmmmmmm"
};
