/* XPM */
static char *result[] = {
/* columns rows colors chars-per-pixel */
"32 32 56 1 ",
"  c #1B1B1B",
". c gray11",
"X c #1D1D1D",
"o c #1F1E1E",
"O c #222222",
"+ c #252221",
"@ c #252525",
"# c #2A2625",
"$ c gray16",
"% c #2C2C2C",
"& c #362E2C",
"* c #233222",
"= c #263B25",
"- c #3C322F",
"; c gray19",
": c #313030",
"> c #323131",
", c #3D3231",
"< c #413633",
"1 c #433736",
"2 c #463837",
"3 c #473A36",
"4 c #443C3A",
"5 c #374623",
"6 c #377034",
"7 c #3A7937",
"8 c #475E27",
"9 c #53423D",
"0 c #564A43",
"q c #534A45",
"w c #5E4A44",
"e c #5F5149",
"r c #755A52",
"t c #785C54",
"y c #716258",
"u c #7A675A",
"i c #80645A",
"p c #83675D",
"a c #866A5F",
"s c #8D7064",
"d c #907366",
"f c #937769",
"g c #90796B",
"h c #997D6E",
"j c #3D8139",
"k c #668D30",
"l c #6D9932",
"z c #4AA945",
"x c #5BB443",
"c c #60B743",
"v c #7DCA40",
"b c #98DB3D",
"n c #A08372",
"m c #A78A78",
"M c #AB8E7B",
"N c None",
/* pixels */
"NNNNNNNNNNNNNNNNNNNNNNNNNNNNNNNN",
"NNNNNNNNNNNNNNNNNNNNNNNNNNNNNNNN",
"NNNNNNNNNNNNNNNNNNNNNNNNNNNNNNNN",
"NNNNNNNNNNNNNNNNNNNNNNNNNNNNNNNN",
"NNNNNNNNNNNNNNNNNNNNNNNNNNNNNNNN",
"NNNNNNNNNNNNNNNNNNNNNNNNNNNNNNNN",
"NNNNNNNNNNNNNNNNNNNNNNNNNNNNNNNN",
"NNNNNNNNNNNNNNNNNNNNNNNNNNNNNNNN",
"NNNNNNNNNNNN.....NNNNNNNNNNNNNNN",
"NNNNNNNNNNNX6k.66XNNNNNNNNNNNNNN",
"NNNNNNNNNN lv8lvv7 NNNNNNNNNNNNN",
"NNNNNNNNNN.bbjbccz.NNNNNNNNNNNNN",
"NNNNNNNNNNN5xzxzz=NNNNNNNNNNNNNN",
"NNNNNNNNNNNN*****NNNNNNNNNNNNNNN",
"NNNNNNNN............NNNNNNNNNNNN",
"NNNNNNNN.rrrrrrrrmr.NNNNNNNNNNNN",
"NNNNNNNN...MM...MMt.oNNNNNNNNNNN",
"NNNNNNN.+++MM+++MMt.t+NNNNNNNNNN",
"NNNNNNN.iiiMMiiiMMt.it#NNNNNNNNN",
"NNNNNNN.gMgMgMgMgnt.Mpt.NNNNNNNN",
"NNNNNNN.qMqMqMqM4tw.MMa&NNNNNNNN",
"NNNNNNN.uhhhhhhhtt.-Mhht.NNNNNNN",
"NNNNNNN..999999999.sMsst.NNNNNNN",
"NNNNNNN.eeee3@3eeeeMMMft.NNNNNNN",
"NNNNNNN.MMMMfyfMMMMMMdtt.NNNNNNN",
"NNNNNNN.0000000000000<<<.NNNNNNN",
"NNNNNN $$$$$$$$$$$$$$$$$$ NNNNNN",
"NNNNNN.OOOOOOOOOOOOOOOOOO.NNNNNN",
"NNNNNN.,,,,,,,,,,,,%,%%%%.NNNNNN",
"NNNNNN.222222222222121;;;.NNNNNN",
"NNNNNN.22222222222>2>>;;;.NNNNNN",
"NNNNNNNX::::::::::;:;;;;XNNNNNNN"
};
