/* XPM */
static char *result[] = {
/* columns rows colors chars-per-pixel */
"32 32 223 2 ",
"   c #060305",
".  c #040206",
"X  c #0E0202",
"o  c #0B0304",
"O  c #0A0305",
"+  c #0F0205",
"@  c #0C0307",
"#  c #060408",
"$  c #0D0308",
"%  c #0F0308",
"&  c #0A0408",
"*  c #0F0508",
"=  c #130101",
"-  c #160003",
";  c #120104",
":  c #130105",
">  c #120304",
",  c #120106",
"<  c #100306",
"1  c #100207",
"2  c #170005",
"3  c #170204",
"4  c #160106",
"5  c #110405",
"6  c #1B0102",
"7  c #1E0201",
"8  c #1C0102",
"9  c #190106",
"0  c #1D0305",
"q  c #1C0106",
"w  c #180406",
"e  c #150208",
"r  c #1E070A",
"t  c #140B0E",
"y  c #230001",
"u  c #260601",
"i  c #250204",
"p  c #280001",
"a  c #280703",
"s  c #2D0702",
"d  c #290104",
"f  c #290606",
"g  c #220408",
"h  c #320601",
"j  c #320402",
"k  c #390502",
"l  c #380704",
"z  c #310803",
"x  c #360802",
"c  c #370902",
"v  c #390803",
"b  c #3A0804",
"n  c #390807",
"m  c #390608",
"M  c #370E12",
"N  c #27181C",
"B  c #302A2A",
"V  c #4E0201",
"C  c #4F0003",
"Z  c #420902",
"A  c #4E0A00",
"S  c #490C02",
"D  c #490D02",
"F  c #44060B",
"G  c #43070D",
"H  c #450D0A",
"J  c #530101",
"K  c #500002",
"L  c #550101",
"P  c #500A02",
"I  c #580E04",
"U  c #580F06",
"Y  c #540C09",
"T  c #4C120C",
"R  c #5B1207",
"E  c #54100B",
"W  c #581109",
"Q  c #5D1209",
"!  c #5F120D",
"~  c #561919",
"^  c #670000",
"/  c #670101",
"(  c #660102",
")  c #670003",
"_  c #660203",
"`  c #650105",
"'  c #650305",
"]  c #6D0002",
"[  c #6C0102",
"{  c #610F01",
"}  c #630E03",
"|  c #640F02",
" . c #660F03",
".. c #640D04",
"X. c #680F05",
"o. c #680E06",
"O. c #690E06",
"+. c #6B0B0D",
"@. c #730002",
"#. c #740E01",
"$. c #700F04",
"%. c #700F07",
"&. c #730E06",
"*. c #631103",
"=. c #671001",
"-. c #651102",
";. c #651103",
":. c #671002",
">. c #671004",
",. c #671306",
"<. c #681001",
"1. c #681002",
"2. c #6B1202",
"3. c #6C1101",
"4. c #6E1100",
"5. c #6D1102",
"6. c #6D1103",
"7. c #6E1002",
"8. c #6E1102",
"9. c #6F1102",
"0. c #6E1103",
"q. c #6F1103",
"w. c #6C1202",
"e. c #6E1202",
"r. c #6F1202",
"t. c #6E1203",
"y. c #6F1203",
"u. c #6D1402",
"i. c #6B1104",
"p. c #6B1106",
"a. c #6A1206",
"s. c #6B1307",
"d. c #6F1004",
"f. c #6F1104",
"g. c #6F1105",
"h. c #6C1304",
"j. c #6C1205",
"k. c #6F1204",
"l. c #6F1106",
"z. c #6F1107",
"x. c #6D1206",
"c. c #6B1407",
"v. c #621209",
"b. c #60110A",
"n. c #66120A",
"m. c #60150B",
"M. c #67150A",
"N. c #66160A",
"B. c #67160B",
"V. c #61140E",
"C. c #691308",
"Z. c #691309",
"A. c #65180E",
"S. c #701103",
"D. c #731002",
"F. c #701203",
"G. c #701004",
"H. c #701005",
"J. c #711007",
"K. c #701107",
"L. c #71100A",
"P. c #820102",
"I. c #850104",
"U. c #8D0101",
"Y. c #8B0204",
"T. c #800900",
"R. c #8B0801",
"E. c #8D0D06",
"W. c #8E0608",
"Q. c #930404",
"!. c #9C0804",
"~. c #910A0D",
"^. c #990A0B",
"/. c #920F10",
"(. c #991310",
"). c #A40601",
"_. c #A90303",
"`. c #A2070F",
"'. c #AA060A",
"]. c #B20202",
"[. c #B50001",
"{. c #B90202",
"}. c #BA0505",
"|. c #B10804",
" X c #B80806",
".X c #BD0804",
"XX c #B10C0D",
"oX c #C60102",
"OX c #C20502",
"+X c #C50304",
"@X c #C60204",
"#X c #C00506",
"$X c #C30506",
"%X c #CD0000",
"&X c #CD0101",
"*X c #CE0000",
"=X c #CF0000",
"-X c #CF0001",
";X c #CD0201",
":X c #CE0301",
">X c #CC0102",
",X c #CD0103",
"<X c #CF0103",
"1X c #CD0202",
"2X c #CF0202",
"3X c #CF0104",
"4X c #C80405",
"5X c #C20805",
"6X c #CC0308",
"7X c #D00000",
"8X c #D10000",
"9X c #D00001",
"0X c #D00101",
"qX c #D10101",
"wX c #D20001",
"eX c #D00002",
"rX c #D10002",
"tX c #D00102",
"yX c #D10003",
"uX c #D00103",
"iX c #D20002",
"pX c #D00106",
"aX c None",
/* pixels */
"aXaXaXaXaXaXaXaXaXaXaXaXaXaXaXaXaXaXaXaXaXaXaXaXaXaXaXaXaXaXaXaX",
"aXaXaXaXaXaXaXaXaXaXaXaXaXaXaXaXaXaXaXaXaXaXaXaXaXaXaXaXaXaXaXaX",
"aXaXaXaXaXaXaXaXaXaXaXaXaXaXaXaXaXaXaXaXaXaXaXaXaXaXaXaXaXaXaXaX",
"aXaXaXaXaXaXaXaXaXaXaXaXaX* 0 d p g @ aXaXaXaXaXaXaXaXaXaXaXaXaX",
"aXaXaXaXaXaXaXaXaXaXaXF '.rXeX7X8XiX7X`.G aXaXaXaXaXaXaXaXaXaXaX",
"aXaXaXaXaXaXaXaXaXM _.eX7X7X7X7X7X7X7X7XwXU.r aXaXaXaXaXaXaXaXaX",
"aXaXaXaXaXaXaXaXm +X7X7X7X7X7X7X7X7X7X7X7X=X{.6 aXaXaXaXaXaXaXaX",
"aXaXaXaXaXaXaX. #X7X7X7X7X7X7X7X7X7X7X7X7X7X=X}.& aXaXaXaXaXaXaX",
"aXaXaXaXaXaXaX/.=X7X7X7X7X7X7X7X7X7X7X7X7X7X7XqX+.aXaXaXaXaXaXaX",
"aXaXaXaXaXaXB [.7X7X7X8X7X-X&X1X%X=X-X9X9XqX7X7X].aXaXaXaXaXaXaX",
"aXaXaXaXaXaX> @X7XrXY.P.^.] ) ( ` ^ / @.W.Q.I.;XoXN aXaXaXaXaXaX",
"aXaXaXaXaXaX3 2XuX' 6X8X7X7X7X-X9X7X=X0X7X*X4X_ tXq aXaXaXaXaXaX",
"aXaXaXaXaXaX4 ,X[ 2X7X7X7X7X7X7X7X7X7X7X7X*XyX~.eXy aXaXaXaXaXaX",
"aXaXaXaXaXaX2 <XC d.&.$.R.|..X5X X!.T.#.G.%.0.A pXL aXaXaXaXaXaX",
"aXaXaXaXaXaX- rXV y.y.y.y.y.y.y.y.y.y.y.y.y.y.S :X(.aXaXaXaXaXaX",
"aXaXaXaXaXaX9 3XK 8.8.8.8.8.8.8.8.8.8.8.8.8.8.P >X$XaXaXaXaXaXaX",
"aXaXaXaXaXaX1 ).J F.y.y.y.y.y.y.y.y.y.y.y.y.y.I OXE.aXaXaXaXaXaX",
"aXaXaXaXaXaX, g.k F.y.y.y.y.y.y.y.y.y.y.y.y.y.b.XXK.aXaXaXaXaXaX",
"aXaXaXaXaXaX1 S.h 8.y.y.y.y.y.y.y.y.y.y.y.y.y.v.M.J.aXaXaXaXaXaX",
"aXaXaXaXaXaX+ h.s t.y.y.y.y.y.y.y.y.y.y.y.y.y.v.N.L.aXaXaXaXaXaX",
"aXaXaXaXaXaX: 8.Z j.8.8.8.8.y.8.8.8.8.8.8.8.y.U C.A.aXaXaXaXaXaX",
"aXaXaXaXaXaXe k.q.c y.y.y.y.y.8.8.8.y.y.y.y.F.D u.T aXaXaXaXaXaX",
"aXaXaXaXaXaX; g.8.W f R Z.B.H.d.f.9.e.r.s.Y u E g.j aXaXaXaXaXaX",
"aXaXaXaXaXaX5 z.y.y.k.c.a.a.>.1.>.=.<.:.p.h.y.y.y.8 aXaXaXaXaXaX",
"aXaXaXaXaXaX% x.8.8.y.8.2.;.-.*.O.o.X.8.y.8.y.y.y.X aXaXaXaXaXaX",
"aXaXaXaXaXaXt i.y.y.y.y.D.V.$ aXaXaXa m.t.y.y.y.l.< aXaXaXaXaXaX",
"aXaXaXaXaXaXaX{ 8.8.8.8.8.Q   aXaXaXx 7.8.8.8.8. .o aXaXaXaXaXaX",
"aXaXaXaXaXaXaX} y.y.y.y.g.b aXaXaXaXv S.y.y.y.y.| aXaXaXaXaXaXaX",
"aXaXaXaXaXaXaX! 5.4.4.w.9.n aXaXaXaXl 0.8.G.y.8...aXaXaXaXaXaXaX",
"aXaXaXaXaXaXaX# 7 H ~ z = O aXaXaXaXw ,.7.6.3.n.i aXaXaXaXaXaXaX",
"aXaXaXaXaXaXaXaXaXaXaXaXaXaXaXaXaXaXaXaXaXaXaXaXaXaXaXaXaXaXaXaX",
"aXaXaXaXaXaXaXaXaXaXaXaXaXaXaXaXaXaXaXaXaXaXaXaXaXaXaXaXaXaXaXaX"
};
