/* XPM */
static char *result[] = {
/* columns rows colors chars-per-pixel */
"32 32 229 2 ",
"   c #050400",
".  c #050402",
"X  c #020204",
"o  c #050005",
"O  c #040205",
"+  c #020505",
"@  c #050507",
"#  c #0C0202",
"$  c #080402",
"%  c #1C0103",
"&  c #180505",
"*  c #180604",
"=  c #190707",
"-  c #1F0404",
";  c #1D0705",
":  c #190608",
">  c #290707",
",  c #210804",
"<  c #280B05",
"1  c #220A0B",
"2  c #270A08",
"3  c #380801",
"4  c #3F0A02",
"5  c #3F0B06",
"6  c #3B0C04",
"7  c #370A08",
"8  c #390C0A",
"9  c #2D161B",
"0  c #35121C",
"q  c #162833",
"w  c #18313A",
"e  c #222E38",
"r  c #480203",
"t  c #430902",
"y  c #410B02",
"u  c #400B03",
"i  c #430B02",
"p  c #440B02",
"a  c #450B02",
"s  c #450A03",
"d  c #400A04",
"f  c #420A04",
"g  c #4E0F05",
"h  c #490708",
"j  c #500403",
"k  c #550701",
"l  c #5E0101",
"z  c #5A0602",
"x  c #5C0406",
"c  c #6D0102",
"v  c #610908",
"b  c #710000",
"n  c #750201",
"m  c #750302",
"M  c #730206",
"N  c #780201",
"B  c #7A0103",
"V  c #780203",
"C  c #790303",
"Z  c #7B0203",
"A  c #7F0102",
"S  c #790004",
"D  c #7E0705",
"F  c #740F02",
"G  c #720F07",
"H  c #7C0F03",
"J  c #710308",
"K  c #6B1302",
"L  c #6E1001",
"P  c #6F1301",
"I  c #6E1102",
"U  c #6F1102",
"Y  c #6E1103",
"T  c #6C1202",
"R  c #6C1302",
"E  c #6F1202",
"W  c #6E1302",
"Q  c #6F1302",
"!  c #6F1203",
"~  c #6C1402",
"^  c #6F1104",
"/  c #6D1204",
"(  c #6D1304",
")  c #6C1205",
"_  c #6E1204",
"`  c #6F1204",
"'  c #6E1205",
"]  c #6C1506",
"[  c #69130A",
"{  c #6D1208",
"}  c #69140A",
"|  c #6D1508",
" . c #6B110C",
".. c #731002",
"X. c #701202",
"o. c #701203",
"O. c #761103",
"+. c #701104",
"@. c #711005",
"#. c #721005",
"$. c #721105",
"%. c #721206",
"&. c #791104",
"*. c #5A1A24",
"=. c #671720",
"-. c #253B4A",
";. c #263B4B",
":. c #253C4B",
">. c #263B4C",
",. c #273B4C",
"<. c #273B4D",
"1. c #263C4C",
"2. c #263C4D",
"3. c #283A4A",
"4. c #293A4A",
"5. c #293A4B",
"6. c #283A4D",
"7. c #3A3D48",
"8. c #2D414A",
"9. c #234655",
"0. c #37515D",
"q. c #355C69",
"w. c #830203",
"e. c #840F05",
"r. c #9A0B04",
"t. c #9D090E",
"y. c #9F0B0E",
"u. c #980C0E",
"i. c #840B13",
"p. c #850C10",
"a. c #8A0B10",
"s. c #A80602",
"d. c #AD0703",
"f. c #A40802",
"g. c #AC0805",
"h. c #AC0B07",
"j. c #BE0403",
"k. c #BD0304",
"l. c #B80606",
"z. c #BC0405",
"x. c #BE0404",
"c. c #BF0407",
"v. c #B60609",
"b. c #B00808",
"n. c #B3080D",
"m. c #BC090B",
"M. c #A00E10",
"N. c #C10200",
"B. c #C30200",
"V. c #C20202",
"C. c #C50200",
"Z. c #C70305",
"A. c #C70405",
"S. c #CA0301",
"D. c #C90302",
"F. c #C90203",
"G. c #C90303",
"H. c #CA0202",
"J. c #CB0202",
"K. c #CB0203",
"L. c #CA0303",
"P. c #CD0100",
"I. c #CC0101",
"U. c #CF0000",
"Y. c #CE0100",
"T. c #CF0001",
"R. c #CE0101",
"E. c #CF0101",
"W. c #CC0200",
"Q. c #CC0301",
"!. c #CD0102",
"~. c #CD0202",
"^. c #CD0203",
"/. c #C80503",
"(. c #CD0307",
"). c #CF0207",
"_. c #C90405",
"`. c #D00000",
"'. c #D10000",
"]. c #D00100",
"[. c #D00001",
"{. c #D10001",
"}. c #D20101",
"|. c #D00002",
" X c #D10002",
".X c #D00202",
"XX c #496F93",
"oX c #437291",
"OX c #427391",
"+X c #437391",
"@X c #437392",
"#X c #437393",
"$X c #447291",
"%X c #477390",
"&X c #447293",
"*X c #427491",
"=X c #417492",
"-X c #417493",
";X c #447494",
":X c #477A99",
">X c #70B9D0",
",X c #7DC8DC",
"<X c #7ECEE4",
"1X c #85CEDB",
"2X c #8ED2E1",
"3X c #82DBEF",
"4X c #85DBEE",
"5X c #80DCEE",
"6X c #81DCEE",
"7X c #81DCEF",
"8X c #83DDEF",
"9X c #85DEEF",
"0X c #93DEEA",
"qX c #92DEEF",
"wX c #85DBF1",
"eX c #81DDF0",
"rX c #82DDF0",
"tX c #81DEF0",
"yX c #81DFF1",
"uX c #82DDF2",
"iX c #84DCF0",
"pX c #85DEF0",
"aX c #92E0EB",
"sX c #8CE0F0",
"dX c #F0F8EF",
"fX c #F3FEED",
"gX c #F6FFEE",
"hX c #F7FFEF",
"jX c None",
/* pixels */
"jXjXjXjXjXjXjXjXjXjXjXjXjXjXjXjXjXjXjXjXjXjXjXjXjXjXjXjXjXjXjXjX",
"jXjXjXjXjXjXjXjXjXjXjXjXjXjXjXjXjXjXjXjXjXjXjXjXjXjXjXjXjXjXjXjX",
"jXjXjXjXjXjXjXjXjXjXjXjX> j Z M.u.b r - jXjXjXjXjXjXjXjXjXjXjXjX",
"jXjXjXjXjXjXjXjXjXjXjXC U.`.`.`.`.`.`.Q.l jXjXjXjXjXjXjXjXjXjXjX",
"jXjXjXjXjXjXjXjXjX% F.`.`.`.`.`.`.`.`.`.`.m.jXjXjXjXjXjXjXjXjXjX",
"jXjXjXjXjXjXjXjX: S.`.`.`.`.`.`.`.`.`.`.`.`.n.$ jXjXjXjXjXjXjXjX",
"jXjXjXjXjXjXjXjXc '.`.Y.A.x.k.z.l.c.j.Z.`.`.W.x jXjXjXjXjXjXjXjX",
"jXjXjXjXjXjXjX@ P.[._.0 q 1X4XiX8X9X2Xw 9 (.R./.X jXjXjXjXjXjXjX",
"jXjXjXjXjXjXjXh L.t.9.6XrXrXrXrXaXgXhXfXdX8.g..X# jXjXjXjXjXjXjX",
"jXjXjXjXjXjXjXJ ).0.rXrXrXrXrXrXrXpXsX0XqXwX7.}.v jXjXjXjXjXjXjX",
"jXjXjXjXjXjXjXm p.,XtXrXrXrXrXrXrXrXrXrXrXiXq.b.M jXjXjXjXjXjXjX",
"jXjXjXjXjXjXjXS =.:X>XyXrXuX7XrX5XeX3XiXtX<X%Xa.n jXjXjXjXjXjXjX",
"jXjXjXjXjXjXjXB *.XX$XoX#X;X;X=X-X*X@X+XOX&XOXi.N jXjXjXjXjXjXjX",
"jXjXjXjXjXjXjXA y.5.>.<.;.1.,.:.6.-.3.4.<.2.e v.V jXjXjXjXjXjXjX",
"jXjXjXjXjXjXjXw.|.{.E.`.].E.R.!.K.J.G.D.H.R.]. Xz jXjXjXjXjXjXjX",
"jXjXjXjXjXjXjXD E.`.`.`.`.`.`.`.`.`.`.`.`.`.`.^.a jXjXjXjXjXjXjX",
"jXjXjXjXjXjXjXk {.`.`.`.`.`.`.`.`.`.`.`.`.`.'.s.f jXjXjXjXjXjXjX",
"jXjXjXjXjXjXjXp d.[.`.`.`.`.`.`.`.`.`.`.`.`.T.H d jXjXjXjXjXjXjX",
"jXjXjXjXjXjXjXi F J.'.`.`.`.`.`.`.`.`.`.`.`.f.^ u jXjXjXjXjXjXjX",
"jXjXjXjXjXjXjXy o.e.~.`.`.`.`.`.`.`.`.`.[.V.F ! 4 jXjXjXjXjXjXjX",
"jXjXjXjXjXjXjXy ! o.&.N.`.`.`.`.`.`.`.`.N.O.! #.5 jXjXjXjXjXjXjX",
"jXjXjXjXjXjXjX6 / ! ! L r.B.I.`.`.U.C.h.U I ! ' 8 jXjXjXjXjXjXjX",
"jXjXjXjXjXjXjX8 _ ! ! ! ! ! $.G { @.! ! ! ! ! ` 2 jXjXjXjXjXjXjX",
"jXjXjXjXjXjXjX< +.! ! ! ! ! ! ! ! ! ! ! ! ! ! ~ & jXjXjXjXjXjXjX",
"jXjXjXjXjXjXjX= K ! I I ! ! X.U T U I I I I ! X.  jXjXjXjXjXjXjX",
"jXjXjXjXjXjXjX. X.! ! ! ! ! jXjXjX1 ! ! ! ! ! Y O jXjXjXjXjXjXjX",
"jXjXjXjXjXjXjXo %.! ! ! ! _ jXjXjX; ! ! ! ! ! [ + jXjXjXjXjXjXjX",
"jXjXjXjXjXjXjXX } ! ! ! ! ) jXjXjXjX! ! ! ! ! s jXjXjXjXjXjXjXjX",
"jXjXjXjXjXjXjXjXt ! ! ! !  .jXjXjXjX^ ! ! ! E 3 jXjXjXjXjXjXjXjX",
"jXjXjXjXjXjXjXjX, | ..W R 7 jXjXjXjXg ( Q P ] * jXjXjXjXjXjXjXjX",
"jXjXjXjXjXjXjXjXjXjXjXjXjXjXjXjXjXjXjXjXjXjXjXjXjXjXjXjXjXjXjXjX",
"jXjXjXjXjXjXjXjXjXjXjXjXjXjXjXjXjXjXjXjXjXjXjXjXjXjXjXjXjXjXjXjX"
};
