/* XPM */
static char *result[] = {
/* columns rows colors chars-per-pixel */
"32 32 94 2 ",
"   c #030001",
".  c #0C0000",
"X  c #050809",
"o  c #0A0B0C",
"O  c #130101",
"+  c #1B0101",
"@  c #11070B",
"#  c #1A0609",
"$  c #170C0D",
"%  c #0A0B10",
"&  c #0C1215",
"*  c #091719",
"=  c #101313",
"-  c #1A1215",
";  c #141A1D",
":  c #230202",
">  c #2C0202",
",  c #22090A",
"<  c #330303",
"1  c #3C0303",
"2  c #191E20",
"3  c #1E292F",
"4  c #1A2B30",
"5  c #222732",
"6  c #2E353A",
"7  c #2A383E",
"8  c #460404",
"9  c #4C0404",
"0  c #520505",
"q  c #5B0606",
"w  c #640707",
"e  c #6E0807",
"r  c #640808",
"t  c #6C0909",
"y  c #740707",
"u  c #750A0A",
"i  c #790B0B",
"p  c #7E100F",
"a  c #2D3F46",
"s  c #253C4B",
"d  c #304248",
"f  c #3C464D",
"g  c #3E4D54",
"h  c #3E535B",
"j  c #42555D",
"k  c #4B6067",
"l  c #46616A",
"z  c #4A646D",
"x  c #52656E",
"c  c #4E6771",
"v  c #4F6973",
"b  c #536E77",
"n  c #53717B",
"m  c #840B0A",
"M  c #8A0C0C",
"N  c #930D0D",
"B  c #9D0D0C",
"V  c #9F100F",
"C  c #861514",
"Z  c #9D1415",
"A  c #A40D0D",
"S  c #AE0F0E",
"D  c #B00E0D",
"F  c #BE100F",
"G  c #AF0F10",
"H  c #B31111",
"J  c #BB1110",
"K  c #C4100F",
"L  c #CA110F",
"P  c #C61110",
"I  c #CA1110",
"U  c #D01312",
"Y  c #597781",
"T  c #5C7D88",
"R  c #668590",
"E  c #648A97",
"W  c #688F9C",
"Q  c #79A6B5",
"!  c #88BBCB",
"~  c #A1BCC4",
"^  c #8CC3D5",
"/  c #90C6D8",
"(  c #94C9DC",
")  c #95CDE0",
"_  c #9CCFE1",
"`  c #9BD1E2",
"'  c #A4D4E5",
"]  c #C1DDE6",
"[  c #C0DDE8",
"{  c #D4E1E7",
"}  c #E8EEEF",
"|  c #EBF1F2",
" . c #F6FAFA",
".. c None",
/* pixels */
"................................................................",
"................................................................",
"................................................................",
"......................>     1 8 9 0 :   + ......................",
"..................... 1 M D K L K K K A > O ....................",
"..................+ 0 K L K K K K P P P A   ....................",
"................# $ C C u i C Z J I P P F : O ..................",
"................= o 3 5 s 3 3 - , A I P K q O ..................",
"............o & z ~ { |  .] / ! g - J P K t . ..................",
"............X d '  . . . .' ^ ( x @ A P K m . ..................",
"............X E ( ' ' ' ` ) ( Q j o A P P A .     O O ..........",
"............  h b Y T E W R n l g X H P P A + y B y . . ........",
"............  d b k z l l l c c 6 # K K P D + m U U t O ........",
"............  X 7 j k z c z l f $ M L K P B + 9 M m N + ........",
"............    O O . % * 2 o O u P K L P m : > i y y : O ......",
"............. . u G V N N M N G L K K K G y : > i i i > O ......",
"............. . t J P P I I P L K P P K m i + < i i i < O ......",
"............. . t A P P I P P P P K P M u i : > i u i < O ......",
"............  O y M P P P P P P P P N y u i : > i u i < . ......",
"............  O i u F U I I K L J m u u i i : < i y i > . ......",
"............  O y i u M V V B M i u u u i i : # i u i > + ......",
"............  O t u i i y y i i u u i u u i > + y i i . O ......",
"............. . t u u t u i u t r i u u u i 1 O t q : . ........",
"............... q i i < < > : O O t u i u i 8 . O   . ..........",
"..............  9 i i y r . ..... q i u i i 8   ................",
"............... < u u i r . ....  q i y u i <   ................",
"................  q i i 8 . ....  0 i i i i :   ................",
"................. . > : . ....... 1 u i i q . ..................",
"....................+ + ..........  : > :   . ..................",
"................................................................",
"................................................................",
"................................................................"
};
