/* XPM */
static char *result[] = {
/* columns rows colors chars-per-pixel */
"32 32 94 2 ",
"   c #030001",
".  c #0C0000",
"X  c #050809",
"o  c #0A0B0C",
"O  c #130101",
"+  c #1B0101",
"@  c #11070B",
"#  c #1A0609",
"$  c #170C0D",
"%  c #0A0B10",
"&  c #0C1215",
"*  c #091719",
"=  c #101313",
"-  c #1A1215",
";  c #141A1D",
":  c #230202",
">  c #2C0202",
",  c #22090A",
"<  c #330303",
"1  c #3C0303",
"2  c #191E20",
"3  c #1E292F",
"4  c #1A2B30",
"5  c #222732",
"6  c #2E353A",
"7  c #2A383E",
"8  c #460404",
"9  c #4C0404",
"0  c #520505",
"q  c #5B0606",
"w  c #640707",
"e  c #6E0807",
"r  c #640808",
"t  c #6C0909",
"y  c #740707",
"u  c #750A0A",
"i  c #790B0B",
"p  c #7E100F",
"a  c #2D3F46",
"s  c #253C4B",
"d  c #304248",
"f  c #3C464D",
"g  c #3E4D54",
"h  c #3E535B",
"j  c #42555D",
"k  c #4B6067",
"l  c #46616A",
"z  c #4A646D",
"x  c #52656E",
"c  c #4E6771",
"v  c #4F6973",
"b  c #536E77",
"n  c #53717B",
"m  c #840B0A",
"M  c #8A0C0C",
"N  c #930D0D",
"B  c #9D0D0C",
"V  c #9F100F",
"C  c #861514",
"Z  c #9D1415",
"A  c #A40D0D",
"S  c #AE0F0E",
"D  c #B00E0D",
"F  c #BE100F",
"G  c #AF0F10",
"H  c #B31111",
"J  c #BB1110",
"K  c #C4100F",
"L  c #CA110F",
"P  c #C61110",
"I  c #CA1110",
"U  c #D01312",
"Y  c #597781",
"T  c #5C7D88",
"R  c #668590",
"E  c #648A97",
"W  c #688F9C",
"Q  c #79A6B5",
"!  c #88BBCB",
"~  c #A1BCC4",
"^  c #8CC3D5",
"/  c #90C6D8",
"(  c #94C9DC",
")  c #95CDE0",
"_  c #9CCFE1",
"`  c #9BD1E2",
"'  c #A4D4E5",
"]  c #C1DDE6",
"[  c #C0DDE8",
"{  c #D4E1E7",
"}  c #E8EEEF",
"|  c #EBF1F2",
" . c #F6FAFA",
".. c None",
/* pixels */
"................................................................",
"................................................................",
"................................................................",
"......................+   : 0 9 9 1     > ......................",
"....................O > A F P P K K D M 8 . ....................",
"....................  A K P P P P P P I K 9 + ..................",
"..................O : F K P I J Z m p u C C $ # ................",
"................... q P P I A : ; 3 4 s 5 ; & = ................",
"................... e P P J - j ! ^ ] | } { ~ c & % ............",
"..................  m I P A @ x ( ^ [  . . . .] d X ............",
"..........O O     . B I P V X j Q ( ) ` _ ' ' / E X ............",
"......... . y B y + A I P G . g z n R W E T n b h   ............",
"........O y U U m + S I P F # 6 c z l l l z z b d   ............",
"........+ N m M 9 + B I P I M $ f l z c z k j 7 X   ............",
"......O + y u i > + m P P P P y O % 2 * o . O O     ............",
"......O > i u i > : u H K I P P G N m N N Z H u .   ............",
"......O < i u i > : u m K P P P I I I I I P J t .   ............",
"......O < i u u > : i u m P K P P P I I I P A t O . ............",
"......O < i u i < : i u u N P P I P I P I I m u O   ............",
"....... < i u i > : i i u u m F I P I I I H u u O   ............",
"......+ > i u i + , i i u u u i M B A V M i u y O   ............",
"......O O y u u + > i u u i u u i y y u i i u t O   ............",
"......... : q t O 1 i u u u i w t u u u t y u t . . ............",
"...........   O . 8 i i i u t O O : > < < i u r . ..............",
"................  8 i u u i r   ..... r u i i 9   ..............",
"................  1 i u u i q   ....  t i u u < . ..............",
"................  : i i u u q   ..... 9 u i q . ................",
"................... q u i u 1 . ......  : > .   ................",
"...................   + > :   ..........+ + ....................",
"................................................................",
"................................................................",
"................................................................"
};
