/* XPM */
static char *ad8b67fb2e4b40c7ad7cf97be2263231MTQTXxFddFbXeMKl[] = {
/* columns rows colors chars-per-pixel */
"32 32 62 1 ",
"  c #470201",
". c #480200",
"X c #870000",
"o c #8B0300",
"O c #8E0B02",
"+ c #950300",
"@ c #9B0500",
"# c #910D01",
"$ c #9B0A00",
"% c #8C1306",
"& c #8E140A",
"* c #911304",
"= c #9C1100",
"- c #92150A",
"; c #A20600",
": c #AD0400",
"> c #A40C00",
", c #AB0F00",
"< c #B10400",
"1 c #B60A00",
"2 c #B90C00",
"3 c #A41400",
"4 c #AB1200",
"5 c #A21900",
"6 c #B01600",
"7 c #BD1400",
"8 c #B11900",
"9 c #BF1B00",
"0 c #BA2200",
"q c #BC2C00",
"w c #C11600",
"e c #C21B00",
"r c #C01C00",
"t c #C31E00",
"y c #C41D00",
"u c #C81E00",
"i c #C22200",
"p c #C52200",
"a c #C32600",
"s c #C92000",
"d c #CD2300",
"f c #C92400",
"g c #CD2600",
"h c #C22F00",
"j c #CD2900",
"k c #D32B00",
"l c #D42B00",
"z c #D32C00",
"x c #D42C00",
"c c #D82E00",
"v c #C63100",
"b c #C93200",
"n c #CF3100",
"m c #CA3500",
"M c #CD3500",
"N c #D63000",
"B c #D63400",
"V c #D23900",
"C c #D53A00",
"Z c #D33C00",
"A c #D43F01",
"S c #D64000",
/* pixels */
"#*#o######O######OO####o####o#**",
"O*=qqqqqqqqqqqqqqqq09990099995**",
"#*5ZAAAAAASAASSSAAABllllxllxl8*#",
"#*5ZAAAAAAAAAAAAAAAzkxlllxlll6**",
"O*5ASAAAAAAAAAAAAACxxlllllxlx8*#",
"#*5ZAAAAAAAAAAASAABxllxlxkzkk4**",
"#*5ZAAAAAAAAVMZACNklxlxlkkgpy4**",
"O*3ZAAAAAAVbqqbNxlxxllxkyrr9r4**",
"#*3ZAAAAAAVmvhnxlxlkxkkpr999y4**",
"#*5VAAAAAAAACCNzxllxlxs99999r4%#",
"O&5VAAACBBBCCVzkllllkky9rrr9e,&-",
"%-3Ncxkxlxxxxxzlxkxllgr9rzy7y4&O",
"#-;dgkxllllllllxlxxlxs999rrrr4&*",
"O&=9rygklkkklxxllxjfprr99999r4-*",
"O&=0wedxgrrrskkggpr99999999rr4&*",
"%&=727ugp999riayr9r99999999ry4&*",
"#&#1:17r99999999999999999999r,-*",
"O-;:<<2r99rw77rr99999999999rr,&*",
"%-$:<<<wr9rw11wr999999999r9rr4&*",
"#-$:<<<2rrr9727r99999rrrwr99r4-*",
"O-@:<<<1rr99wwr99999rww7wr99r4&*",
"%-@::<<1wrr9rrr9r99w2<1<2wrrr4&#",
"%-;::<<<2ww77777wrr2:<<<<7rre4&*",
"%-@::::<<<<<<<<<27r2<<<<<7rrr4&*",
"O-#ooo;<<:<<<<<<<<1<<:<<2www7>&*",
"O-ooXo@<<<<<::::::::<<<<171<<;&*",
"O&ooXoo::::;;@@++++@:<<<<1<:<;&*",
"#&OXoXoooooooooXoooo+;:<<:<<<;&*",
"%-OooooooooXXooXoXooo+:<<<<<<;&*",
"#&Oooooooooooooooooooo@;;;;;;#&&",
"O&OOoOO#OooOOOoOOOOOoOoOOoOoOO%&",
". .............................."
};
